<svg xmlns="http://www.w3.org/2000/svg" xmlns:xlink="http://www.w3.org/1999/xlink" width="1080" zoomAndPan="magnify" viewBox="0 0 810 809.999993" height="1080" preserveAspectRatio="xMidYMid meet" version="1.0"><defs><g/></defs><path fill="#000000" d="M 539.6875 183.039062 C 366.644531 81.230469 146.765625 205.574219 144.851562 406.324219 C 142.984375 602.355469 350.3125 728.972656 522.960938 642.6875 L 334.457031 365.171875 L 334.457031 536.949219 C 334.457031 555.980469 298.058594 555.980469 298.058594 536.949219 L 298.058594 306.671875 C 298.058594 291.5625 326.105469 290.320312 334.054688 303.457031 L 548.917969 627.890625 C 710.320312 523.863281 708.140625 282.144531 539.6875 183.039062 Z M 515.414062 508.128906 L 478.898438 452.324219 L 478.898438 299.550781 C 478.898438 285.304688 515.410156 285.304688 515.410156 299.550781 L 515.410156 508.128906 Z M 515.414062 508.128906 " fill-opacity="1" fill-rule="nonzero"/><g fill="#000000" fill-opacity="1"><g transform="translate(400.998031, 247.658782)"><g><path d="M 4.890625 0.1875 C 4.109375 0.1875 3.410156 0.0195312 2.796875 -0.3125 C 2.191406 -0.65625 1.722656 -1.125 1.390625 -1.71875 C 1.054688 -2.320312 0.890625 -3 0.890625 -3.75 C 0.890625 -4.488281 1.054688 -5.15625 1.390625 -5.75 C 1.722656 -6.351562 2.191406 -6.828125 2.796875 -7.171875 C 3.410156 -7.515625 4.109375 -7.6875 4.890625 -7.6875 C 5.429688 -7.6875 5.953125 -7.570312 6.453125 -7.34375 C 6.960938 -7.125 7.375 -6.804688 7.6875 -6.390625 L 6.828125 -5.78125 C 6.648438 -6.0625 6.382812 -6.296875 6.03125 -6.484375 C 5.6875 -6.671875 5.3125 -6.765625 4.90625 -6.765625 C 4.34375 -6.765625 3.84375 -6.632812 3.40625 -6.375 C 2.96875 -6.113281 2.628906 -5.75 2.390625 -5.28125 C 2.160156 -4.820312 2.046875 -4.3125 2.046875 -3.75 C 2.046875 -3.175781 2.160156 -2.660156 2.390625 -2.203125 C 2.628906 -1.742188 2.960938 -1.382812 3.390625 -1.125 C 3.828125 -0.863281 4.328125 -0.734375 4.890625 -0.734375 C 5.753906 -0.734375 6.429688 -1.0625 6.921875 -1.71875 L 7.75 -1.109375 C 7.039062 -0.242188 6.085938 0.1875 4.890625 0.1875 Z M 4.890625 0.1875 "/></g></g></g></svg>