<svg xmlns="http://www.w3.org/2000/svg" xmlns:xlink="http://www.w3.org/1999/xlink" width="40" zoomAndPan="magnify" viewBox="0 0 30 30.000001" height="40" preserveAspectRatio="xMidYMid meet" version="1.0"><defs><g/><clipPath id="15751b7e19"><path d="M 0.484375 0 L 29.515625 0 L 29.515625 29.03125 L 0.484375 29.03125 Z M 0.484375 0 " clip-rule="nonzero"/></clipPath><clipPath id="97dde3783a"><path d="M 15 0 C 6.984375 0 0.484375 6.5 0.484375 14.515625 C 0.484375 22.53125 6.984375 29.03125 15 29.03125 C 23.015625 29.03125 29.515625 22.53125 29.515625 14.515625 C 29.515625 6.5 23.015625 0 15 0 Z M 15 0 " clip-rule="nonzero"/></clipPath><clipPath id="a39d02f9b1"><path d="M 0.484375 4 L 18 4 L 18 27 L 0.484375 27 Z M 0.484375 4 " clip-rule="nonzero"/></clipPath></defs><g clip-path="url(#15751b7e19)"><g clip-path="url(#97dde3783a)"><path fill="#915eff" d="M 0.484375 0 L 29.515625 0 L 29.515625 29.03125 L 0.484375 29.03125 Z M 0.484375 0 " fill-opacity="1" fill-rule="nonzero"/></g></g><g clip-path="url(#a39d02f9b1)"><g fill="#000000" fill-opacity="1"><g transform="translate(3.298608, 20.790375)"><g><path d="M 13.296875 -1.765625 C 13.335938 -1.722656 13.367188 -1.6875 13.390625 -1.65625 C 13.398438 -1.59375 13.382812 -1.539062 13.34375 -1.5 C 13.1875 -1.394531 13.03125 -1.40625 12.875 -1.53125 C 12.789062 -1.625 12.695312 -1.726562 12.59375 -1.84375 C 12.382812 -2.09375 12.179688 -2.351562 11.984375 -2.625 C 11.796875 -2.90625 11.617188 -3.1875 11.453125 -3.46875 C 11.304688 -3.71875 11.15625 -3.96875 11 -4.21875 C 10.882812 -4.40625 10.78125 -4.582031 10.6875 -4.75 C 10.632812 -4.851562 10.585938 -4.90625 10.546875 -4.90625 C 10.503906 -4.914062 10.4375 -4.90625 10.34375 -4.875 C 10.03125 -4.757812 9.722656 -4.648438 9.421875 -4.546875 C 9.085938 -4.429688 8.769531 -4.316406 8.46875 -4.203125 C 8.382812 -4.171875 8.328125 -4.128906 8.296875 -4.078125 C 8.273438 -4.023438 8.265625 -3.957031 8.265625 -3.875 C 8.285156 -3.0625 8.273438 -2.25 8.234375 -1.4375 C 8.179688 -0.882812 8.117188 -0.34375 8.046875 0.1875 C 7.972656 0.71875 7.851562 1.25 7.6875 1.78125 C 7.5625 2.25 7.363281 2.6875 7.09375 3.09375 C 6.84375 3.507812 6.507812 3.835938 6.09375 4.078125 C 5.53125 4.398438 4.925781 4.5 4.28125 4.375 C 3.90625 4.289062 3.550781 4.144531 3.21875 3.9375 C 2.082031 3.28125 1.171875 2.394531 0.484375 1.28125 C 0.359375 1.082031 0.257812 0.867188 0.1875 0.640625 L 0.1875 0.625 C 0.175781 0.582031 0.160156 0.539062 0.140625 0.5 C 0.0234375 -0.0390625 0.160156 -0.519531 0.546875 -0.9375 C 0.703125 -1.082031 0.863281 -1.210938 1.03125 -1.328125 C 1.195312 -1.441406 1.378906 -1.539062 1.578125 -1.625 C 2.140625 -1.894531 2.710938 -2.15625 3.296875 -2.40625 C 4.210938 -2.789062 5.128906 -3.171875 6.046875 -3.546875 C 6.367188 -3.679688 6.695312 -3.8125 7.03125 -3.9375 C 7.1875 -3.988281 7.335938 -4.046875 7.484375 -4.109375 C 7.597656 -4.148438 7.671875 -4.1875 7.703125 -4.21875 C 7.734375 -4.257812 7.742188 -4.335938 7.734375 -4.453125 C 7.710938 -4.679688 7.703125 -4.914062 7.703125 -5.15625 C 7.566406 -6.957031 7.359375 -8.75 7.078125 -10.53125 C 6.910156 -11.644531 6.707031 -12.75 6.46875 -13.84375 C 6.394531 -14.1875 6.3125 -14.523438 6.21875 -14.859375 C 6.175781 -15.035156 6.140625 -15.195312 6.109375 -15.34375 C 6.097656 -15.363281 6.09375 -15.382812 6.09375 -15.40625 C 6.070312 -15.457031 6.054688 -15.5 6.046875 -15.53125 C 6.023438 -15.625 6.03125 -15.691406 6.0625 -15.734375 C 6.09375 -15.785156 6.15625 -15.828125 6.25 -15.859375 C 6.332031 -15.878906 6.394531 -15.875 6.4375 -15.84375 C 6.488281 -15.820312 6.523438 -15.765625 6.546875 -15.671875 C 6.640625 -15.367188 6.734375 -15.054688 6.828125 -14.734375 C 6.867188 -14.597656 6.910156 -14.457031 6.953125 -14.3125 C 7.242188 -13.445312 7.5625 -12.5625 7.90625 -11.65625 C 8.3125 -10.65625 8.738281 -9.664062 9.1875 -8.6875 C 9.65625 -7.65625 10.171875 -6.65625 10.734375 -5.6875 C 10.753906 -5.632812 10.773438 -5.585938 10.796875 -5.546875 C 10.816406 -5.515625 10.835938 -5.484375 10.859375 -5.453125 C 10.921875 -5.378906 10.988281 -5.363281 11.0625 -5.40625 C 11.257812 -5.46875 11.457031 -5.53125 11.65625 -5.59375 C 11.757812 -5.632812 11.859375 -5.640625 11.953125 -5.609375 C 11.992188 -5.597656 12.019531 -5.566406 12.03125 -5.515625 C 12.039062 -5.492188 12.035156 -5.472656 12.015625 -5.453125 C 12.003906 -5.441406 11.992188 -5.4375 11.984375 -5.4375 C 11.878906 -5.394531 11.78125 -5.359375 11.6875 -5.328125 C 11.632812 -5.316406 11.585938 -5.300781 11.546875 -5.28125 C 11.515625 -5.28125 11.488281 -5.273438 11.46875 -5.265625 C 11.382812 -5.234375 11.300781 -5.207031 11.21875 -5.1875 C 11.101562 -5.144531 11.078125 -5.070312 11.140625 -4.96875 C 11.179688 -4.882812 11.222656 -4.804688 11.265625 -4.734375 C 11.429688 -4.453125 11.601562 -4.171875 11.78125 -3.890625 C 12.007812 -3.515625 12.25 -3.144531 12.5 -2.78125 C 12.75 -2.425781 13.015625 -2.085938 13.296875 -1.765625 Z M 7.75 -3.671875 C 7.75 -3.773438 7.734375 -3.835938 7.703125 -3.859375 C 7.671875 -3.890625 7.613281 -3.882812 7.53125 -3.84375 C 7.144531 -3.695312 6.769531 -3.546875 6.40625 -3.390625 C 6.332031 -3.359375 6.257812 -3.332031 6.1875 -3.3125 C 5.363281 -2.96875 4.539062 -2.617188 3.71875 -2.265625 C 3.101562 -1.992188 2.492188 -1.722656 1.890625 -1.453125 C 1.609375 -1.316406 1.347656 -1.15625 1.109375 -0.96875 C 0.640625 -0.570312 0.5 -0.0859375 0.6875 0.484375 C 0.75 0.679688 0.828125 0.875 0.921875 1.0625 C 1.054688 1.289062 1.203125 1.503906 1.359375 1.703125 C 1.523438 1.910156 1.707031 2.113281 1.90625 2.3125 C 2.394531 2.84375 2.945312 3.296875 3.5625 3.671875 C 3.894531 3.859375 4.242188 3.992188 4.609375 4.078125 C 5.234375 4.203125 5.769531 4.035156 6.21875 3.578125 C 6.476562 3.316406 6.691406 3.015625 6.859375 2.671875 C 7.109375 2.148438 7.289062 1.613281 7.40625 1.0625 C 7.625 -0.113281 7.738281 -1.304688 7.75 -2.515625 C 7.75 -2.898438 7.75 -3.285156 7.75 -3.671875 Z M 10.359375 -5.1875 C 10.359375 -5.195312 10.359375 -5.203125 10.359375 -5.203125 C 10.367188 -5.210938 10.375 -5.21875 10.375 -5.21875 C 10.375 -5.226562 10.375 -5.234375 10.375 -5.234375 C 9.382812 -7.046875 8.5 -8.90625 7.71875 -10.8125 C 7.6875 -10.882812 7.65625 -10.945312 7.625 -11 C 7.613281 -11 7.601562 -11.007812 7.59375 -11.03125 C 7.570312 -11.039062 7.554688 -11.050781 7.546875 -11.0625 C 7.566406 -10.90625 7.585938 -10.738281 7.609375 -10.5625 C 7.671875 -10.175781 7.726562 -9.796875 7.78125 -9.421875 C 7.851562 -8.867188 7.921875 -8.316406 7.984375 -7.765625 C 8.023438 -7.441406 8.054688 -7.132812 8.078125 -6.84375 C 8.109375 -6.59375 8.132812 -6.347656 8.15625 -6.109375 C 8.175781 -5.867188 8.191406 -5.628906 8.203125 -5.390625 C 8.222656 -5.085938 8.242188 -4.773438 8.265625 -4.453125 C 8.398438 -4.484375 8.601562 -4.539062 8.875 -4.625 C 9.144531 -4.71875 9.425781 -4.816406 9.71875 -4.921875 C 10.007812 -5.035156 10.222656 -5.125 10.359375 -5.1875 Z M 10.359375 -5.1875 "/></g></g></g></g><g fill="#000000" fill-opacity="1"><g transform="translate(16.128249, 16.939442)"><g><path d="M 9.953125 -4.78125 C 10.003906 -4.769531 10.03125 -4.738281 10.03125 -4.6875 C 10.03125 -4.632812 10.019531 -4.570312 10 -4.5 C 9.988281 -4.4375 9.972656 -4.378906 9.953125 -4.328125 C 9.941406 -4.316406 9.9375 -4.304688 9.9375 -4.296875 C 9.78125 -3.835938 9.660156 -3.375 9.578125 -2.90625 C 9.503906 -2.4375 9.445312 -1.957031 9.40625 -1.46875 C 9.375 -1.28125 9.347656 -1.09375 9.328125 -0.90625 C 9.285156 -0.5 9.238281 -0.0859375 9.1875 0.328125 C 9.125 1.023438 9.039062 1.726562 8.9375 2.4375 C 8.90625 2.6875 8.859375 2.9375 8.796875 3.1875 C 8.734375 3.375 8.597656 3.5 8.390625 3.5625 C 8.210938 3.613281 8.085938 3.566406 8.015625 3.421875 C 7.929688 3.296875 7.859375 3.15625 7.796875 3 C 7.609375 2.457031 7.457031 1.898438 7.34375 1.328125 C 7.257812 0.929688 7.175781 0.535156 7.09375 0.140625 C 7 -0.273438 6.90625 -0.691406 6.8125 -1.109375 C 6.613281 -2.085938 6.425781 -3.054688 6.25 -4.015625 C 6.03125 -5.140625 5.820312 -6.25 5.625 -7.34375 C 5.300781 -9.238281 4.945312 -11.125 4.5625 -13 C 4.539062 -13.101562 4.515625 -13.191406 4.484375 -13.265625 C 4.460938 -13.347656 4.4375 -13.375 4.40625 -13.34375 C 4.382812 -13.3125 4.367188 -13.21875 4.359375 -13.0625 C 4.285156 -11.320312 4.257812 -9.597656 4.28125 -7.890625 C 4.269531 -7.816406 4.269531 -7.75 4.28125 -7.6875 C 4.28125 -6.664062 4.28125 -5.644531 4.28125 -4.625 C 4.289062 -4.238281 4.28125 -3.835938 4.25 -3.421875 C 4.226562 -3.003906 4.175781 -2.601562 4.09375 -2.21875 C 4.070312 -2.125 4.019531 -2.039062 3.9375 -1.96875 C 3.863281 -1.90625 3.769531 -1.863281 3.65625 -1.84375 C 3.53125 -1.820312 3.429688 -1.851562 3.359375 -1.9375 C 3.273438 -2.019531 3.210938 -2.117188 3.171875 -2.234375 C 3.117188 -2.347656 3.066406 -2.472656 3.015625 -2.609375 C 2.878906 -2.890625 2.757812 -3.171875 2.65625 -3.453125 C 2.351562 -4.242188 2.023438 -5.03125 1.671875 -5.8125 C 1.328125 -6.601562 0.945312 -7.367188 0.53125 -8.109375 C 0.425781 -8.304688 0.359375 -8.28125 0.328125 -8.03125 C 0.304688 -7.789062 0.316406 -7.40625 0.359375 -6.875 C 0.398438 -6.351562 0.453125 -5.742188 0.515625 -5.046875 C 0.585938 -4.347656 0.664062 -3.644531 0.75 -2.9375 C 0.84375 -2.238281 0.925781 -1.59375 1 -1 C 1.101562 -0.0820312 1.171875 0.5 1.203125 0.75 C 1.203125 0.925781 1.191406 1.101562 1.171875 1.28125 C 1.160156 1.351562 1.128906 1.410156 1.078125 1.453125 C 1.023438 1.503906 0.957031 1.535156 0.875 1.546875 C 0.726562 1.566406 0.613281 1.507812 0.53125 1.375 C 0.5 1.289062 0.46875 1.210938 0.4375 1.140625 C 0.40625 1.078125 0.382812 1.015625 0.375 0.953125 C 0.28125 0.703125 0.195312 0.445312 0.125 0.1875 C -0.507812 -1.757812 -1.09375 -3.734375 -1.625 -5.734375 C -1.945312 -6.992188 -2.289062 -8.253906 -2.65625 -9.515625 C -2.6875 -9.648438 -2.722656 -9.785156 -2.765625 -9.921875 C -2.804688 -10.046875 -2.847656 -10.175781 -2.890625 -10.3125 C -2.910156 -10.414062 -2.890625 -10.492188 -2.828125 -10.546875 C -2.765625 -10.609375 -2.679688 -10.632812 -2.578125 -10.625 C -2.535156 -10.625 -2.503906 -10.613281 -2.484375 -10.59375 C -2.460938 -10.570312 -2.441406 -10.539062 -2.421875 -10.5 C -2.273438 -10.164062 -2.160156 -9.828125 -2.078125 -9.484375 C -2.015625 -9.285156 -1.957031 -9.078125 -1.90625 -8.859375 C -1.75 -8.285156 -1.601562 -7.710938 -1.46875 -7.140625 C -1.28125 -6.398438 -1.078125 -5.671875 -0.859375 -4.953125 C -0.703125 -4.410156 -0.554688 -3.863281 -0.421875 -3.3125 C -0.242188 -2.738281 -0.0703125 -2.171875 0.09375 -1.609375 C 0.207031 -1.222656 0.328125 -0.828125 0.453125 -0.421875 C 0.453125 -0.398438 0.457031 -0.363281 0.46875 -0.3125 C 0.488281 -0.269531 0.507812 -0.222656 0.53125 -0.171875 C 0.5625 -0.128906 0.585938 -0.09375 0.609375 -0.0625 C 0.640625 -0.03125 0.660156 -0.0234375 0.671875 -0.046875 C 0.679688 -0.0664062 0.679688 -0.125 0.671875 -0.21875 C 0.628906 -0.488281 0.585938 -0.789062 0.546875 -1.125 C 0.441406 -1.894531 0.332031 -2.753906 0.21875 -3.703125 C 0.101562 -4.648438 0.0234375 -5.550781 -0.015625 -6.40625 C -0.0546875 -7.269531 -0.03125 -7.957031 0.0625 -8.46875 C 0.113281 -8.65625 0.210938 -8.765625 0.359375 -8.796875 C 0.503906 -8.835938 0.644531 -8.789062 0.78125 -8.65625 C 0.96875 -8.414062 1.160156 -8.109375 1.359375 -7.734375 C 1.554688 -7.367188 1.75 -6.976562 1.9375 -6.5625 C 2.125 -6.15625 2.285156 -5.773438 2.421875 -5.421875 C 2.492188 -5.234375 2.566406 -5.050781 2.640625 -4.875 C 2.742188 -4.632812 2.84375 -4.40625 2.9375 -4.1875 C 3.144531 -3.6875 3.316406 -3.296875 3.453125 -3.015625 C 3.585938 -2.742188 3.691406 -2.617188 3.765625 -2.640625 C 3.835938 -2.671875 3.890625 -2.882812 3.921875 -3.28125 C 3.960938 -3.6875 3.976562 -4.316406 3.96875 -5.171875 C 3.957031 -5.960938 3.945312 -6.722656 3.9375 -7.453125 C 3.914062 -8.410156 3.90625 -9.367188 3.90625 -10.328125 C 3.90625 -11.296875 3.941406 -12.304688 4.015625 -13.359375 C 4.046875 -13.671875 4.085938 -13.929688 4.140625 -14.140625 C 4.203125 -14.359375 4.28125 -14.484375 4.375 -14.515625 C 4.425781 -14.546875 4.472656 -14.554688 4.515625 -14.546875 C 4.566406 -14.546875 4.617188 -14.507812 4.671875 -14.4375 C 4.734375 -14.375 4.796875 -14.25 4.859375 -14.0625 C 4.953125 -13.757812 5.035156 -13.445312 5.109375 -13.125 C 5.191406 -12.8125 5.257812 -12.503906 5.3125 -12.203125 C 5.3125 -12.160156 5.316406 -12.125 5.328125 -12.09375 C 5.648438 -10.476562 5.953125 -8.851562 6.234375 -7.21875 C 6.421875 -6.164062 6.613281 -5.109375 6.8125 -4.046875 C 6.820312 -4.015625 6.828125 -3.984375 6.828125 -3.953125 C 7.023438 -2.984375 7.21875 -2.003906 7.40625 -1.015625 C 7.582031 -0.160156 7.773438 0.695312 7.984375 1.5625 C 7.992188 1.625 8.007812 1.695312 8.03125 1.78125 C 8.070312 2.007812 8.125 2.226562 8.1875 2.4375 C 8.21875 2.519531 8.242188 2.601562 8.265625 2.6875 C 8.265625 2.707031 8.269531 2.71875 8.28125 2.71875 C 8.289062 2.726562 8.3125 2.726562 8.34375 2.71875 C 8.34375 2.71875 8.347656 2.710938 8.359375 2.703125 C 8.367188 2.703125 8.375 2.691406 8.375 2.671875 C 8.476562 2.023438 8.582031 1.375 8.6875 0.71875 C 8.757812 0.113281 8.84375 -0.5 8.9375 -1.125 C 9.039062 -1.75 9.15625 -2.367188 9.28125 -2.984375 C 9.382812 -3.515625 9.5 -3.941406 9.625 -4.265625 C 9.75 -4.597656 9.859375 -4.769531 9.953125 -4.78125 Z M 9.953125 -4.78125 "/></g></g></g></svg>