<svg xmlns="http://www.w3.org/2000/svg" xmlns:xlink="http://www.w3.org/1999/xlink" width="500" zoomAndPan="magnify" viewBox="0 0 375 374.999991" height="500" preserveAspectRatio="xMidYMid meet" version="1.0"><defs><g/><clipPath id="bcb824d19c"><path d="M 187.5 0 C 83.945312 0 0 83.945312 0 187.5 C 0 291.054688 83.945312 375 187.5 375 C 291.054688 375 375 291.054688 375 187.5 C 375 83.945312 291.054688 0 187.5 0 Z M 187.5 0 " clip-rule="nonzero"/></clipPath></defs><g clip-path="url(#bcb824d19c)"><rect x="-37.5" width="450" fill="#915eff" y="-37.499999" height="449.999989" fill-opacity="1"/></g><g fill="#000000" fill-opacity="1"><g transform="translate(36.340481, 268.558516)"><g><path d="M 172.03125 -22.734375 C 172.414062 -22.316406 172.722656 -21.847656 172.953125 -21.328125 C 173.285156 -20.609375 173.113281 -20.007812 172.4375 -19.53125 C 170.363281 -18.007812 168.421875 -18.109375 166.609375 -19.828125 C 165.328125 -21.054688 164.097656 -22.363281 162.921875 -23.75 C 160.171875 -27.050781 157.566406 -30.488281 155.109375 -34.0625 C 152.648438 -37.632812 150.289062 -41.238281 148.03125 -44.875 C 146.03125 -48.09375 144.0625 -51.316406 142.125 -54.546875 C 140.789062 -56.859375 139.425781 -59.164062 138.03125 -61.46875 C 137.351562 -62.625 136.757812 -63.285156 136.25 -63.453125 C 135.75 -63.628906 134.890625 -63.503906 133.671875 -63.078125 C 129.691406 -61.628906 125.734375 -60.179688 121.796875 -58.734375 C 117.640625 -57.210938 113.484375 -55.738281 109.328125 -54.3125 C 108.296875 -53.925781 107.601562 -53.390625 107.25 -52.703125 C 106.90625 -52.023438 106.753906 -51.175781 106.796875 -50.15625 C 107.140625 -39.601562 106.988281 -29.019531 106.34375 -18.40625 C 105.863281 -11.40625 105.117188 -4.441406 104.109375 2.484375 C 103.097656 9.410156 101.585938 16.242188 99.578125 22.984375 C 97.765625 29.035156 95.175781 34.722656 91.8125 40.046875 C 88.488281 45.378906 84.160156 49.578125 78.828125 52.640625 C 71.472656 56.859375 63.671875 58.148438 55.421875 56.515625 C 50.453125 55.421875 45.800781 53.585938 41.46875 51.015625 C 27 42.421875 15.28125 31.003906 6.3125 16.765625 C 4.675781 14.160156 3.414062 11.375 2.53125 8.40625 L 2.46875 8.203125 C 2.289062 7.609375 2.128906 6.984375 1.984375 6.328125 C 0.359375 -0.679688 2.050781 -6.785156 7.0625 -11.984375 C 9.007812 -13.921875 11.097656 -15.628906 13.328125 -17.109375 C 15.566406 -18.585938 17.910156 -19.882812 20.359375 -21 C 27.648438 -24.476562 35.019531 -27.820312 42.46875 -31.03125 C 54.3125 -36.09375 66.226562 -41.066406 78.21875 -45.953125 C 82.40625 -47.648438 86.597656 -49.289062 90.796875 -50.875 C 92.847656 -51.601562 94.847656 -52.367188 96.796875 -53.171875 C 98.191406 -53.640625 99.082031 -54.109375 99.46875 -54.578125 C 99.851562 -55.046875 100 -55.984375 99.90625 -57.390625 C 99.820312 -60.390625 99.71875 -63.429688 99.59375 -66.515625 C 98 -89.796875 95.328125 -112.960938 91.578125 -136.015625 C 89.398438 -150.441406 86.796875 -164.765625 83.765625 -178.984375 C 82.742188 -183.421875 81.628906 -187.859375 80.421875 -192.296875 C 79.890625 -194.273438 79.398438 -196.253906 78.953125 -198.234375 C 78.867188 -198.535156 78.78125 -198.835938 78.6875 -199.140625 C 78.507812 -199.722656 78.363281 -200.289062 78.25 -200.84375 C 77.96875 -202 78.007812 -202.875 78.375 -203.46875 C 78.738281 -204.0625 79.484375 -204.523438 80.609375 -204.859375 C 81.734375 -205.253906 82.609375 -205.304688 83.234375 -205.015625 C 83.867188 -204.722656 84.367188 -203.984375 84.734375 -202.796875 C 85.921875 -198.835938 87.144531 -194.757812 88.40625 -190.5625 C 88.9375 -188.769531 89.484375 -186.945312 90.046875 -185.09375 C 93.679688 -173.851562 97.800781 -162.425781 102.40625 -150.8125 C 107.5 -137.8125 112.972656 -124.945312 118.828125 -112.21875 C 124.859375 -98.976562 131.445312 -86.03125 138.59375 -73.375 C 138.925781 -72.757812 139.257812 -72.179688 139.59375 -71.640625 C 139.84375 -71.304688 140.082031 -70.953125 140.3125 -70.578125 C 141.007812 -69.554688 141.929688 -69.289062 143.078125 -69.78125 C 145.617188 -70.59375 148.1875 -71.421875 150.78125 -72.265625 C 151.988281 -72.753906 153.222656 -72.859375 154.484375 -72.578125 C 154.972656 -72.398438 155.304688 -72.019531 155.484375 -71.4375 C 155.515625 -71.113281 155.445312 -70.847656 155.28125 -70.640625 C 155.113281 -70.429688 154.921875 -70.296875 154.703125 -70.234375 C 153.441406 -69.796875 152.164062 -69.382812 150.875 -69 C 150.300781 -68.769531 149.722656 -68.566406 149.140625 -68.390625 C 148.773438 -68.273438 148.453125 -68.175781 148.171875 -68.09375 C 147.085938 -67.769531 146.050781 -67.425781 145.0625 -67.0625 C 143.570312 -66.476562 143.226562 -65.46875 144.03125 -64.03125 C 144.570312 -63.101562 145.148438 -62.175781 145.765625 -61.25 C 147.847656 -57.5 150.035156 -53.832031 152.328125 -50.25 C 155.328125 -45.445312 158.425781 -40.71875 161.625 -36.0625 C 164.832031 -31.40625 168.300781 -26.960938 172.03125 -22.734375 Z M 100.140625 -47.46875 C 100.128906 -48.757812 99.929688 -49.554688 99.546875 -49.859375 C 99.171875 -50.171875 98.40625 -50.082031 97.25 -49.59375 C 92.394531 -47.757812 87.585938 -45.832031 82.828125 -43.8125 C 81.910156 -43.46875 80.992188 -43.101562 80.078125 -42.71875 C 69.347656 -38.320312 58.660156 -33.847656 48.015625 -29.296875 C 40.128906 -25.898438 32.265625 -22.382812 24.421875 -18.75 C 20.828125 -17.144531 17.472656 -15.0625 14.359375 -12.5 C 8.253906 -7.5 6.390625 -1.226562 8.765625 6.3125 C 9.585938 8.851562 10.648438 11.3125 11.953125 13.6875 C 13.691406 16.65625 15.625 19.472656 17.75 22.140625 C 19.875 24.804688 22.113281 27.363281 24.46875 29.8125 C 30.800781 36.769531 38.019531 42.625 46.125 47.375 C 50.382812 49.90625 54.882812 51.675781 59.625 52.6875 C 67.664062 54.25 74.5625 52.125 80.3125 46.3125 C 83.8125 42.882812 86.609375 38.945312 88.703125 34.5 C 91.859375 27.789062 94.15625 20.828125 95.59375 13.609375 C 98.601562 -1.578125 100.132812 -16.929688 100.1875 -32.453125 C 100.25 -37.460938 100.234375 -42.46875 100.140625 -47.46875 Z M 134.015625 -67.0625 C 134.054688 -67.125 134.066406 -67.1875 134.046875 -67.25 C 134.097656 -67.320312 134.128906 -67.394531 134.140625 -67.46875 C 134.148438 -67.550781 134.117188 -67.582031 134.046875 -67.5625 C 121.285156 -90.976562 109.847656 -115.070312 99.734375 -139.84375 C 99.378906 -140.632812 98.976562 -141.425781 98.53125 -142.21875 C 98.445312 -142.351562 98.28125 -142.523438 98.03125 -142.734375 C 97.863281 -142.796875 97.6875 -142.925781 97.5 -143.125 C 97.863281 -140.90625 98.1875 -138.679688 98.46875 -136.453125 C 99.21875 -131.515625 99.914062 -126.585938 100.5625 -121.671875 C 101.59375 -114.535156 102.5 -107.398438 103.28125 -100.265625 C 103.726562 -96.253906 104.128906 -92.25 104.484375 -88.25 C 104.765625 -85.15625 105.078125 -82.046875 105.421875 -78.921875 C 105.703125 -75.835938 105.894531 -72.75 106 -69.65625 C 106.175781 -65.664062 106.492188 -61.671875 106.953125 -57.671875 C 108.578125 -57.953125 111.179688 -58.679688 114.765625 -59.859375 C 118.347656 -61.035156 121.984375 -62.304688 125.671875 -63.671875 C 129.359375 -65.046875 132.140625 -66.175781 134.015625 -67.0625 Z M 134.015625 -67.0625 "/></g></g></g><g fill="#000000" fill-opacity="1"><g transform="translate(202.056668, 218.817296)"><g><path d="M 128.703125 -61.859375 C 129.378906 -61.734375 129.726562 -61.320312 129.75 -60.625 C 129.78125 -59.925781 129.65625 -59.144531 129.375 -58.28125 C 129.101562 -57.425781 128.84375 -56.695312 128.59375 -56.09375 C 128.457031 -55.820312 128.390625 -55.609375 128.390625 -55.453125 C 126.335938 -49.546875 124.820312 -43.535156 123.84375 -37.421875 C 122.863281 -31.316406 122.078125 -25.164062 121.484375 -18.96875 C 121.179688 -16.550781 120.90625 -14.144531 120.65625 -11.75 C 119.976562 -6.4375 119.382812 -1.113281 118.875 4.21875 C 117.96875 13.320312 116.851562 22.4375 115.53125 31.5625 C 115.050781 34.757812 114.394531 37.929688 113.5625 41.078125 C 112.894531 43.660156 111.1875 45.335938 108.4375 46.109375 C 106.226562 46.828125 104.5625 46.195312 103.4375 44.21875 C 102.40625 42.53125 101.570312 40.738281 100.9375 38.84375 C 98.46875 31.707031 96.484375 24.460938 94.984375 17.109375 C 93.921875 11.984375 92.820312 6.90625 91.6875 1.875 C 90.4375 -3.5625 89.253906 -9.023438 88.140625 -14.515625 C 85.535156 -26.972656 83.046875 -39.472656 80.671875 -52.015625 C 77.984375 -66.398438 75.351562 -80.75 72.78125 -95.0625 C 68.488281 -119.40625 63.875 -143.71875 58.9375 -168 C 58.601562 -169.507812 58.265625 -170.734375 57.921875 -171.671875 C 57.578125 -172.617188 57.257812 -172.914062 56.96875 -172.5625 C 56.6875 -172.207031 56.472656 -170.910156 56.328125 -168.671875 C 55.367188 -146.410156 54.992188 -124.160156 55.203125 -101.921875 C 55.179688 -101.097656 55.203125 -100.296875 55.265625 -99.515625 C 55.359375 -86.296875 55.394531 -73.101562 55.375 -59.9375 C 55.4375 -54.84375 55.300781 -49.625 54.96875 -44.28125 C 54.632812 -38.9375 53.953125 -33.785156 52.921875 -28.828125 C 52.578125 -27.390625 51.90625 -26.273438 50.90625 -25.484375 C 49.90625 -24.691406 48.664062 -24.164062 47.1875 -23.90625 C 45.6875 -23.59375 44.382812 -23.976562 43.28125 -25.0625 C 42.320312 -26.125 41.5625 -27.351562 41 -28.75 C 40.320312 -30.363281 39.628906 -32.003906 38.921875 -33.671875 C 37.335938 -37.304688 35.835938 -40.957031 34.421875 -44.625 C 30.441406 -54.84375 26.179688 -65.03125 21.640625 -75.1875 C 17.109375 -85.34375 12.21875 -95.25 6.96875 -104.90625 C 5.601562 -107.34375 4.757812 -107.015625 4.4375 -103.921875 C 4.113281 -100.828125 4.191406 -95.828125 4.671875 -88.921875 C 5.160156 -82.015625 5.859375 -74.101562 6.765625 -65.1875 C 7.671875 -56.28125 8.675781 -47.238281 9.78125 -38.0625 C 10.882812 -28.894531 11.882812 -20.515625 12.78125 -12.921875 C 14.257812 -1.140625 15.140625 6.382812 15.421875 9.65625 C 15.535156 12.03125 15.425781 14.351562 15.09375 16.625 C 14.914062 17.644531 14.484375 18.414062 13.796875 18.9375 C 13.117188 19.46875 12.296875 19.816406 11.328125 19.984375 C 9.367188 20.304688 7.890625 19.570312 6.890625 17.78125 C 6.410156 16.800781 6.015625 15.785156 5.703125 14.734375 C 5.367188 13.921875 5.070312 13.097656 4.8125 12.265625 C 3.675781 9.035156 2.585938 5.773438 1.546875 2.484375 C -6.578125 -22.804688 -14.078125 -48.3125 -20.953125 -74.03125 C -25.265625 -90.3125 -29.640625 -106.613281 -34.078125 -122.9375 C -34.585938 -124.664062 -35.113281 -126.421875 -35.65625 -128.203125 C -36.207031 -129.828125 -36.710938 -131.507812 -37.171875 -133.25 C -37.523438 -134.582031 -37.3125 -135.632812 -36.53125 -136.40625 C -35.757812 -137.175781 -34.679688 -137.484375 -33.296875 -137.328125 C -32.753906 -137.304688 -32.335938 -137.140625 -32.046875 -136.828125 C -31.765625 -136.523438 -31.53125 -136.144531 -31.34375 -135.6875 C -29.476562 -131.40625 -27.957031 -127.019531 -26.78125 -122.53125 C -26.0625 -119.832031 -25.351562 -117.140625 -24.65625 -114.453125 C -22.65625 -107.085938 -20.703125 -99.707031 -18.796875 -92.3125 C -16.328125 -82.800781 -13.738281 -73.34375 -11.03125 -63.9375 C -9.09375 -56.96875 -7.160156 -49.984375 -5.234375 -42.984375 C -3.210938 -35.566406 -1.078125 -28.203125 1.171875 -20.890625 C 2.679688 -15.847656 4.1875 -10.734375 5.6875 -5.546875 C 5.78125 -5.242188 5.953125 -4.796875 6.203125 -4.203125 C 6.460938 -3.609375 6.765625 -2.984375 7.109375 -2.328125 C 7.460938 -1.679688 7.773438 -1.179688 8.046875 -0.828125 C 8.328125 -0.472656 8.535156 -0.425781 8.671875 -0.6875 C 8.816406 -0.945312 8.804688 -1.671875 8.640625 -2.859375 C 8.179688 -6.285156 7.671875 -10.144531 7.109375 -14.4375 C 5.703125 -24.53125 4.269531 -35.695312 2.8125 -47.9375 C 1.363281 -60.175781 0.367188 -71.84375 -0.171875 -82.9375 C -0.722656 -94.039062 -0.367188 -102.894531 0.890625 -109.5 C 1.492188 -111.945312 2.722656 -113.410156 4.578125 -113.890625 C 6.441406 -114.378906 8.265625 -113.703125 10.046875 -111.859375 C 12.585938 -108.804688 15.117188 -104.894531 17.640625 -100.125 C 20.171875 -95.363281 22.597656 -90.335938 24.921875 -85.046875 C 27.242188 -79.765625 29.367188 -74.804688 31.296875 -70.171875 C 32.304688 -67.617188 33.257812 -65.320312 34.15625 -63.28125 C 35.53125 -59.976562 36.785156 -56.957031 37.921875 -54.21875 C 40.648438 -47.71875 42.867188 -42.691406 44.578125 -39.140625 C 46.296875 -35.585938 47.65625 -33.960938 48.65625 -34.265625 C 49.664062 -34.566406 50.347656 -37.304688 50.703125 -42.484375 C 51.054688 -47.660156 51.226562 -55.765625 51.21875 -66.796875 C 51.125 -76.984375 50.984375 -86.796875 50.796875 -96.234375 C 50.535156 -108.703125 50.421875 -121.128906 50.453125 -133.515625 C 50.484375 -145.910156 50.972656 -158.960938 51.921875 -172.671875 C 52.210938 -176.628906 52.75 -179.992188 53.53125 -182.765625 C 54.320312 -185.535156 55.398438 -187.179688 56.765625 -187.703125 C 57.285156 -187.953125 57.84375 -188.050781 58.4375 -188 C 59.039062 -187.945312 59.707031 -187.472656 60.4375 -186.578125 C 61.164062 -185.691406 61.910156 -184.070312 62.671875 -181.71875 C 63.960938 -177.789062 65.070312 -173.796875 66 -169.734375 C 66.925781 -165.679688 67.8125 -161.625 68.65625 -157.5625 C 68.726562 -157.0625 68.828125 -156.601562 68.953125 -156.1875 C 73.097656 -135.257812 77.003906 -114.296875 80.671875 -93.296875 C 83.097656 -79.609375 85.578125 -65.945312 88.109375 -52.3125 C 88.203125 -52.007812 88.285156 -51.664062 88.359375 -51.28125 C 90.742188 -38.582031 93.222656 -25.882812 95.796875 -13.1875 C 98.109375 -2.082031 100.503906 9.019531 102.984375 20.125 C 103.203125 21.070312 103.445312 22.070312 103.71875 23.125 C 104.351562 25.945312 105.0625 28.757812 105.84375 31.5625 C 106.144531 32.582031 106.441406 33.566406 106.734375 34.515625 C 106.765625 34.816406 106.863281 35.050781 107.03125 35.21875 C 107.207031 35.394531 107.476562 35.425781 107.84375 35.3125 C 107.957031 35.28125 108.078125 35.203125 108.203125 35.078125 C 108.328125 34.960938 108.382812 34.796875 108.375 34.578125 C 109.726562 26.148438 111.003906 17.765625 112.203125 9.421875 C 113.253906 1.398438 114.40625 -6.625 115.65625 -14.65625 C 116.90625 -22.695312 118.359375 -30.742188 120.015625 -38.796875 C 121.335938 -45.546875 122.78125 -51.054688 124.34375 -55.328125 C 125.914062 -59.597656 127.367188 -61.773438 128.703125 -61.859375 Z M 128.703125 -61.859375 "/></g></g></g></svg>